<svg width="1441" height="3052" viewBox="0 0 1441 3052" fill="none" xmlns="http://www.w3.org/2000/svg">
<g clip-path="url(#clip0)">
<rect width="1440" height="3052" transform="translate(0.205078)" fill="white"/>
<path fill-rule="evenodd" clip-rule="evenodd" d="M1535.8 1193.38C1348.98 1226.01 1135.22 1247.24 907.701 1253C519.644 1262.84 168.409 1225.75 -79.3921 1158.48V878.438C156.462 907.814 512.605 877.6 894.825 784.682C1140.69 724.913 1361.27 647.967 1535.8 565.818V1193.38Z" fill="#FFDE17"/>
<path fill-rule="evenodd" clip-rule="evenodd" d="M1535.8 2687.6C1348.98 2720.23 1135.22 2741.46 907.701 2747.22C519.644 2757.06 168.409 2719.97 -79.3921 2652.7V2372.66C156.462 2402.04 512.605 2371.82 894.825 2278.9C1140.69 2219.13 1361.27 2142.19 1535.8 2060.04V2687.6Z" fill="#FFDE17"/>
<path fill-rule="evenodd" clip-rule="evenodd" d="M-79.3917 1940.49C107.435 1973.12 321.19 1994.35 548.71 2000.11C936.767 2009.95 1288 1972.86 1535.8 1905.59V1625.55C1299.95 1654.93 943.805 1624.71 561.586 1531.79C315.725 1472.02 95.1415 1395.08 -79.3917 1312.93V1940.49Z" fill="#FFDE17"/>
</g>
<defs>
<clipPath id="clip0">
<rect width="1440" height="3052" fill="white" transform="translate(0.205078)"/>
</clipPath>
</defs>
</svg>
